<?xml version="1.0" encoding="utf-8"?>
<svg xmlns="http://www.w3.org/2000/svg" xmlns:xlink="http://www.w3.org/1999/xlink" style="margin: auto; background: none; display: block; shape-rendering: auto;" width="237px" height="237px" viewBox="0 0 100 100" preserveAspectRatio="xMidYMid">
<g transform="rotate(0 50 50)">
  <rect x="47" y="24" rx="3" ry="6" width="6" height="12" fill="#7bc4ef">
    <animate attributeName="opacity" values="1;0" keyTimes="0;1" dur="1.9607843137254901s" begin="-1.7973856209150327s" repeatCount="indefinite"></animate>
  </rect>
</g><g transform="rotate(30 50 50)">
  <rect x="47" y="24" rx="3" ry="6" width="6" height="12" fill="#7bc4ef">
    <animate attributeName="opacity" values="1;0" keyTimes="0;1" dur="1.9607843137254901s" begin="-1.6339869281045751s" repeatCount="indefinite"></animate>
  </rect>
</g><g transform="rotate(60 50 50)">
  <rect x="47" y="24" rx="3" ry="6" width="6" height="12" fill="#7bc4ef">
    <animate attributeName="opacity" values="1;0" keyTimes="0;1" dur="1.9607843137254901s" begin="-1.4705882352941175s" repeatCount="indefinite"></animate>
  </rect>
</g><g transform="rotate(90 50 50)">
  <rect x="47" y="24" rx="3" ry="6" width="6" height="12" fill="#7bc4ef">
    <animate attributeName="opacity" values="1;0" keyTimes="0;1" dur="1.9607843137254901s" begin="-1.3071895424836601s" repeatCount="indefinite"></animate>
  </rect>
</g><g transform="rotate(120 50 50)">
  <rect x="47" y="24" rx="3" ry="6" width="6" height="12" fill="#7bc4ef">
    <animate attributeName="opacity" values="1;0" keyTimes="0;1" dur="1.9607843137254901s" begin="-1.1437908496732025s" repeatCount="indefinite"></animate>
  </rect>
</g><g transform="rotate(150 50 50)">
  <rect x="47" y="24" rx="3" ry="6" width="6" height="12" fill="#7bc4ef">
    <animate attributeName="opacity" values="1;0" keyTimes="0;1" dur="1.9607843137254901s" begin="-0.9803921568627451s" repeatCount="indefinite"></animate>
  </rect>
</g><g transform="rotate(180 50 50)">
  <rect x="47" y="24" rx="3" ry="6" width="6" height="12" fill="#7bc4ef">
    <animate attributeName="opacity" values="1;0" keyTimes="0;1" dur="1.9607843137254901s" begin="-0.8169934640522876s" repeatCount="indefinite"></animate>
  </rect>
</g><g transform="rotate(210 50 50)">
  <rect x="47" y="24" rx="3" ry="6" width="6" height="12" fill="#7bc4ef">
    <animate attributeName="opacity" values="1;0" keyTimes="0;1" dur="1.9607843137254901s" begin="-0.6535947712418301s" repeatCount="indefinite"></animate>
  </rect>
</g><g transform="rotate(240 50 50)">
  <rect x="47" y="24" rx="3" ry="6" width="6" height="12" fill="#7bc4ef">
    <animate attributeName="opacity" values="1;0" keyTimes="0;1" dur="1.9607843137254901s" begin="-0.49019607843137253s" repeatCount="indefinite"></animate>
  </rect>
</g><g transform="rotate(270 50 50)">
  <rect x="47" y="24" rx="3" ry="6" width="6" height="12" fill="#7bc4ef">
    <animate attributeName="opacity" values="1;0" keyTimes="0;1" dur="1.9607843137254901s" begin="-0.32679738562091504s" repeatCount="indefinite"></animate>
  </rect>
</g><g transform="rotate(300 50 50)">
  <rect x="47" y="24" rx="3" ry="6" width="6" height="12" fill="#7bc4ef">
    <animate attributeName="opacity" values="1;0" keyTimes="0;1" dur="1.9607843137254901s" begin="-0.16339869281045752s" repeatCount="indefinite"></animate>
  </rect>
</g><g transform="rotate(330 50 50)">
  <rect x="47" y="24" rx="3" ry="6" width="6" height="12" fill="#7bc4ef">
    <animate attributeName="opacity" values="1;0" keyTimes="0;1" dur="1.9607843137254901s" begin="0s" repeatCount="indefinite"></animate>
  </rect>
</g>
<!-- [ldio] generated by https://loading.io/ --></svg>